<svg width="100" height="32" viewBox="0 0 100 32" fill="none" xmlns="http://www.w3.org/2000/svg">
<path fill-rule="evenodd" clip-rule="evenodd" d="M15.4244 22.5845V26.803C15.4244 27.642 15.0029 28.4255 14.3024 28.888C13.6024 29.3505 12.7164 29.4305 11.9444 29.101L5.01991 26.1455C4.24191 25.8135 3.71641 25.0835 3.63891 24.253C3.63241 24.2035 3.62891 24.153 3.62891 24.1025V19.3615C3.62891 19.0275 3.82791 18.726 4.13491 18.595L21.2109 11.3065C21.4684 11.197 21.7634 11.2235 21.9969 11.3775C22.2304 11.532 22.3709 11.793 22.3709 12.073V16.049C22.3709 17.1335 21.7239 18.113 20.7264 18.539L6.09941 24.795L12.5984 27.569C12.8559 27.6785 13.1509 27.652 13.3844 27.498C13.6179 27.3435 13.7584 27.0825 13.7584 26.803V23.295L15.4244 22.5845ZM5.29491 23.314L20.0724 17.0065C20.4559 16.843 20.7049 16.466 20.7049 16.049V13.334L5.29491 19.9115V23.314ZM22.0584 9.09946L3.94141 16.8325V11.444C3.94141 10.382 4.57491 9.42246 5.55191 9.00546L20.0584 2.81346C20.5024 2.62446 21.0114 2.67046 21.4139 2.93596C21.8164 3.20196 22.0584 3.65196 22.0584 4.13446V9.09946Z" fill="white"/>
<path fill-rule="evenodd" clip-rule="evenodd" d="M35.1175 24.5305H32V8.00848H43.3955V11.008H35.1175V15.526H42.4905V18.4075H35.1175V24.5305ZM47.277 24.5305H44.403V13.0555H52.2955V15.905H47.277V24.5305ZM56.8875 12.831V24.5305H54.0055V12.831H56.8875ZM68.71 8.00848H71.5915V24.5305H68.899L68.71 22.925C67.8115 24.318 66.369 24.7905 64.95 24.7905C61.521 24.7905 58.9465 22.5235 58.9465 18.6925C58.9465 14.673 61.4735 12.595 64.879 12.595C66.1085 12.595 68.0245 13.256 68.71 14.4605V8.00848ZM65.139 15.287C63.2945 15.287 61.828 16.5875 61.828 18.6925C61.828 20.7265 63.2945 22.122 65.139 22.122C66.96 22.122 68.521 20.7975 68.521 18.6925C68.521 16.6585 66.96 15.287 65.139 15.287ZM83.249 14.484L83.3435 12.8785H86.1065V24.5305H83.391L83.249 22.8305C82.587 24.2 80.766 24.861 79.465 24.885C76.0125 24.9085 73.462 22.783 73.462 18.6925C73.462 14.673 76.1305 12.571 79.536 12.595C81.097 12.595 82.587 13.327 83.249 14.484ZM79.796 15.1685C77.8805 15.1685 76.343 16.4695 76.343 18.6925C76.343 20.9155 77.8805 22.24 79.796 22.24C84.3355 22.24 84.3355 15.1685 79.796 15.1685ZM96.6045 12.8785H99.796L92.68 29.4H89.5125L91.687 24.342L87.03 12.8785H90.387L92.16 17.913L93.271 21.1985L94.477 17.984L96.6045 12.8785ZM53.679 10.65V8.14148H57.214V10.65H53.679Z" fill="white"/>
</svg>
